<svg xmlns="http://www.w3.org/2000/svg" viewBox="0 0 21028 7208" fill-rule="evenodd">
  <!-- Dobariya Group logo, rebuilt from the original CorelDRAW file (DOBARIYA_LOGO.cdr). Colours sampled from its preview. -->
  <g transform="translate(4182 5986) scale(0.99985 0.99882)"><path fill="#373435" d="M592 602c0-72-22-131-67-171-35-32-78-51-155-63l-95-14c-39-5-72-20-93-38-23-20-32-47-32-77 0-74 54-130 152-130 70 0 129 15 181 64l80-79c-71-66-148-94-258-94-172 0-277 99-277 243 0 68 19 121 60 159 36 35 90 58 158 68l98 14c49 7 70 15 91 35 22 20 33 50 33 86 0 81-63 127-172 127-85 0-152-18-212-79l-84 83c79 80 169 110 294 110 174 0 298-91 298-244zM592 602zM954 839v-833h-126v833zM954 839zM1862 839v-833h-126v585l-384-585h-115v833h126v-586l384 586zM1862 839zM2710 590h-127c-20 84-77 142-169 142-49 0-94-18-123-50-41-44-50-92-50-260 0-167 9-215 50-259 29-32 74-50 123-50 92 0 148 58 168 142h128c-29-166-144-255-296-255-87 0-162 31-219 88-81 82-80 174-80 334 0 161-1 253 80 335 57 57 132 89 219 89 150 0 268-90 296-256zM2710 590zM3476 839v-114h-406v-249h347v-113h-347v-243h406v-114h-532v833zM3476 839zM4301 839v-833h-119l-163 141v131l163-142v703zM4301 839zM5131 248c0-154-103-248-246-248-144 0-245 100-245 253 0 146 96 241 217 241 25 0 52-3 74-13l-178 358h127l189-386c36-73 62-137 62-205zM5131 248zM5012 250c0 90-53 144-127 144-80 0-126-62-126-144 0-88 51-144 126-144 74 0 127 56 127 144zM5012 250zM5829 604c0-99-56-160-114-196 54-33 100-91 100-179 0-138-107-229-242-229-136 0-242 91-242 229 0 88 47 146 100 179-58 36-114 97-114 196 0 151 113 242 256 242 142 0 256-91 256-242zM5829 604zM5709 602c0 77-59 137-136 137s-137-60-137-137 60-139 137-139 136 62 136 139zM5709 602zM5696 233c0 73-51 126-123 126-73 0-123-53-123-126 0-72 50-127 123-127 72 0 123 55 123 127zM5696 233zM6507 248c0-154-103-248-246-248-144 0-246 100-246 253 0 146 97 241 218 241 25 0 52-3 74-13l-178 358h127l189-386c36-73 62-137 62-205zM6507 248zM6388 250c0 90-53 144-127 144-80 0-126-62-126-144 0-88 51-144 126-144 74 0 127 56 127 144z"/></g>
  <g transform="translate(1537 2919) scale(0.99930 0.99940)"><polygon fill="#373435" points="1436,1659 1436,0 0,829"/></g>
  <g transform="translate(25 3801) scale(0.99930 0.99940)"><polygon fill="#2691CA" points="1436,1659 1436,0 0,829"/></g>
  <g transform="translate(1512 3801) scale(0.99930 0.99940)"><polygon fill="#373435" points="0,1659 1436,829 0,0"/></g>
  <g transform="translate(1537 4674) scale(0.99930 0.99940)"><polygon fill="#373435" points="0,829 1436,1659 1436,0"/></g>
  <g transform="translate(1512 5547) scale(0.99930 0.99940)"><polygon fill="#2691CA" points="0,0 0,1659 1436,829"/></g>
  <g transform="translate(25 5547) scale(0.99930 0.99940)"><polygon fill="#2691CA" points="1436,0 0,829 1436,1659"/></g>
  <g transform="translate(0 4674) scale(0.99930 0.99940)"><polygon fill="#2691CA" points="1436,829 0,0 0,1659"/></g>
  <g transform="translate(1507 0) scale(0.99932 0.99973)"><path fill="#373435" d="M0 3695v-741-1264c174 0 173 0 348 0v811h42v167h86v-1301c178 0 275 0 398 0v845h164v-1540l186-49 6-199c-18-11-31-30-31-53 0-25 14-46 35-56 5-132 11-175 16-308 7-8 15-10 23 0l14 309c20 10 34 31 34 55 0 22-13 42-31 52l8 201 170 44-1 2181zM0 3695zM322 3264h-85v-85h85zM322 3264zM110 3264h-85v-85h85zM110 3264zM322 3039h-85v-85h85zM322 3039zM110 3039h-85v-85h85zM110 3039zM322 2814h-85v-85h85zM322 2814zM110 2814h-85v-85h85zM110 2814zM1357 2404h-72v-132h72zM1357 2404zM1223 2404h-71v-132h71zM1223 2404zM1226 2092h-142v-132h142zM1226 2092zM1421 2092h-140v-132h140zM1421 2092zM1226 1785h-142v-132h142zM1226 1785zM1421 1785h-140v-132h140zM1421 1785zM1226 1479h-142v-132h142zM1226 1479zM1421 1479h-140v-132h140zM1421 1479zM1226 1174h-142v-132h142zM1226 1174zM1421 1174h-140v-132h140zM1421 1174zM216 2697h-85v-85h85zM216 2697zM216 2589h-85v-85h85zM216 2589zM322 2481h-85v-85h85zM322 2481zM110 2481h-85v-85h85zM110 2481zM216 2373h-85v-85h85zM216 2373zM322 2265h-85v-85h85zM322 2265zM110 2265h-85v-85h85zM110 2265zM216 2157h-85v-85h85zM216 2157zM322 2049h-85v-85h85zM322 2049zM110 2049h-85v-85h85zM110 2049zM216 1941h-85v-85h85zM216 1941zM322 1832h-85v-85h85zM322 1832zM110 1832h-85v-85h85zM110 1832zM608 1535h-85v-85h85zM608 1535zM718 1535h-85v-85h85zM718 1535zM827 1535h-85v-85h85zM827 1535zM608 1750h-85v-85h85zM608 1750zM718 1750h-85v-85h85zM718 1750zM827 1750h-85v-85h85zM827 1750zM608 1967h-85v-85h85zM608 1967zM718 1967h-85v-85h85zM718 1967zM827 1967h-85v-85h85zM827 1967zM608 2182h-85v-85h85zM608 2182zM718 2182h-85v-85h85zM718 2182zM827 2182h-85v-85h85zM827 2182zM718 2381h-85v-85h85z"/></g>
  <g transform="translate(4182 2919) scale(0.99994 0.99962)"><path fill="#373435" d="M1905 1304c0-403 33-729-266-1028-176-176-424-251-690-251h-949v2557h949c266 0 514-75 690-251 299-299 266-625 266-1027zM1905 1304zM1276 1304c0 434-18 502-68 574-58 86-144 143-302 143h-277v-1435h277c158 0 244 57 302 143 50 72 68 144 68 575zM1276 1304zM4192 1301c0-385 10-744-259-1014-187-187-403-287-716-287s-528 100-715 287c-270 270-259 629-259 1014 0 386-11 745 259 1015 187 187 402 288 715 288s529-101 716-288c269-270 259-629 259-1015zM4192 1301zM3562 1301c0 469-36 551-93 627-47 61-137 115-252 115s-205-54-252-115c-57-76-93-158-93-627 0-467 36-554 93-629 47-61 137-112 252-112s205 51 252 112c57 75 93 162 93 629zM3562 1301zM6525 1827c0-359-212-493-317-558 79-54 281-216 281-505 0-441-284-739-816-739h-1061v2557h1114c457 0 799-266 799-755zM6525 1827zM5896 1791c0 108-58 227-231 227h-424v-450h424c173 0 231 115 231 223zM5896 1791zM5860 796c0 100-54 207-227 207h-392v-414h392c173 0 227 107 227 207zM5860 796zM9035 2582l-932-2557h-486l-931 2557h658c200-604 294-883 532-1588 225 711 311 980 500 1588zM9035 2582zM11304 2582l-554-1066c201-101 417-320 417-669 0-420-306-822-874-822h-1014v2557h629v-951h213l453 951zM11304 2582zM10538 847c0 133-101 259-274 259h-356v-517h356c173 0 274 125 274 258zM10538 847zM12238 2582v-2557h-629v2557zM12238 2582zM14657 25h-686l-400 919-402-919h-687l773 1516v1041h629v-1041zM14657 25zM16847 2582l-932-2557h-485l-931 2557h658c193-585 299-898 532-1588 214 677 322 1017 500 1588z"/></g>
  <g transform="translate(20448 2919) scale(0.99828 0.99828)"><path fill="#373435" d="M291 0h-1c51 0 102 13 146 39 44 25 81 62 106 106 26 44 39 95 39 145v1c0 50-13 101-39 145-25 44-62 81-106 106-44 26-95 39-145 39-51 0-102-13-146-39-44-25-81-62-106-106-26-44-39-95-39-145 0-51 13-102 39-146 25-44 62-81 106-106 44-26 95-39 145-39z"/></g>
  <g transform="translate(20600 3044) scale(0.99668 0.99697)"><path fill="#FFFFFF" d="M0 320v-320h146c15 0 28 0 39 2 11 1 21 3 29 7 8 3 16 7 22 13 7 5 12 12 17 20s9 16 11 25 4 19 4 28c0 12-3 23-7 34-4 10-10 20-18 28-8 9-18 16-30 21-5 2-9 4-15 5l4 3c6 6 12 13 18 20s12 15 17 23l64 101h-76l-44-69c-5-8-10-17-15-24s-10-13-13-18c-5-5-8-9-11-12s-6-5-8-6c-3-2-5-3-8-5-3-1-5-2-8-2-2-1-4-1-7-1-4 0-8 0-13 0h-37v137h-61zM0 320zM61 136h77c9 0 18 0 25-1 6-1 12-2 16-4 5-1 8-3 11-6 3-2 6-5 8-8s4-7 5-11c1-3 1-7 1-11 0-6-1-11-3-17-2-4-5-9-9-12-4-4-9-7-16-9s-16-3-28-3h-87z"/></g>
</svg>
